<svg width="21" height="21" viewBox="0 0 21 21" fill="none" xmlns="http://www.w3.org/2000/svg">
<g clip-path="url(#clip0_3703_38203)">
<path d="M8.49145 7.0097H2.20189C1.39266 7.0097 0.734375 6.35141 0.734375 5.54203V1.76829C0.734375 0.959066 1.39266 0.300781 2.20189 0.300781H8.49145C9.30083 0.300781 9.95912 0.959066 9.95912 1.76829V5.54203C9.95912 6.35141 9.30083 7.0097 8.49145 7.0097ZM2.20189 1.55869C2.08626 1.55869 1.99229 1.65267 1.99229 1.76829V5.54203C1.99229 5.65781 2.08626 5.75179 2.20189 5.75179H8.49145C8.60723 5.75179 8.7012 5.65781 8.7012 5.54203V1.76829C8.7012 1.65267 8.60723 1.55869 8.49145 1.55869H2.20189Z" fill="#2A2A2A"/>
<path d="M8.49145 20.4281H2.20189C1.39266 20.4281 0.734375 19.7698 0.734375 18.9606V10.1552C0.734375 9.34579 1.39266 8.6875 2.20189 8.6875H8.49145C9.30083 8.6875 9.95912 9.34579 9.95912 10.1552V18.9606C9.95912 19.7698 9.30083 20.4281 8.49145 20.4281ZM2.20189 9.94541C2.08626 9.94541 1.99229 10.0394 1.99229 10.1552V18.9606C1.99229 19.0762 2.08626 19.1702 2.20189 19.1702H8.49145C8.60723 19.1702 8.7012 19.0762 8.7012 18.9606V10.1552C8.7012 10.0394 8.60723 9.94541 8.49145 9.94541H2.20189Z" fill="#2A2A2A"/>
<path d="M19.3979 20.4199H13.1083C12.2989 20.4199 11.6406 19.7616 11.6406 18.9523V15.1786C11.6406 14.3692 12.2989 13.7109 13.1083 13.7109H19.3979C20.2071 13.7109 20.8654 14.3692 20.8654 15.1786V18.9523C20.8654 19.7616 20.2071 20.4199 19.3979 20.4199ZM13.1083 14.9689C12.9925 14.9689 12.8985 15.0628 12.8985 15.1786V18.9523C12.8985 19.068 12.9925 19.1619 13.1083 19.1619H19.3979C19.5135 19.1619 19.6075 19.068 19.6075 18.9523V15.1786C19.6075 15.0628 19.5135 14.9689 19.3979 14.9689H13.1083Z" fill="#2A2A2A"/>
<path d="M19.3979 12.0413H13.1083C12.2989 12.0413 11.6406 11.3831 11.6406 10.5737V1.76829C11.6406 0.959066 12.2989 0.300781 13.1083 0.300781H19.3979C20.2071 0.300781 20.8654 0.959066 20.8654 1.76829V10.5737C20.8654 11.3831 20.2071 12.0413 19.3979 12.0413ZM13.1083 1.55869C12.9925 1.55869 12.8985 1.65267 12.8985 1.76829V10.5737C12.8985 10.6895 12.9925 10.7834 13.1083 10.7834H19.3979C19.5135 10.7834 19.6075 10.6895 19.6075 10.5737V1.76829C19.6075 1.65267 19.5135 1.55869 19.3979 1.55869H13.1083Z" fill="#2A2A2A"/>
</g>
<defs>
<clipPath id="clip0_3703_38203">
<rect width="20.1266" height="20.1266" fill="white" transform="translate(0.734375 0.300781)"/>
</clipPath>
</defs>
</svg>
