<svg width="1028" height="501" viewBox="0 0 1028 501" fill="none" xmlns="http://www.w3.org/2000/svg">
<g opacity="0.55">
<path d="M1 87.0028C145.057 145.112 222.71 221.751 267.494 284.447C304.827 336.718 304.164 358.099 343.806 397.097C429.832 481.72 594.625 540.076 674.492 467.354C713.835 431.531 699.282 386.133 718.1 300.193C735.03 222.884 778.802 116.556 901.007 1" stroke="#F5F5F5" stroke-width="0.619829" stroke-miterlimit="10"/>
<path d="M1.28809 105.751C141.408 155.691 218.283 227.79 263.045 286.465C300.707 335.85 303.769 355.598 345.876 393.925C434.206 474.328 588.967 530.305 668.947 462.45C710.144 427.502 700.773 382.881 722.822 297.193C742.235 221.754 786.9 117.244 906.999 2.72461" stroke="#F5F5F5" stroke-width="0.619829" stroke-miterlimit="10"/>
<path d="M1.57617 124.496C137.756 166.271 213.914 233.847 258.603 288.484C296.673 335.029 303.307 353.1 347.953 390.754C438.393 467.03 583.557 520.663 663.414 457.549C706.554 423.45 702.204 379.674 727.554 294.195C749.373 220.645 795.009 117.941 913.009 4.4624" stroke="#F5F5F5" stroke-width="0.619829" stroke-miterlimit="10"/>
<path d="M1.86426 143.245C134.104 176.852 209.621 239.923 254.161 290.518C292.688 334.258 302.769 350.619 350.042 387.58C442.411 459.835 578.38 511.167 657.886 452.645C703.061 419.398 703.57 376.502 732.294 291.196C756.417 219.551 803.126 118.637 919.009 6.19238" stroke="#F5F5F5" stroke-width="0.619829" stroke-miterlimit="10"/>
<path d="M2.15381 161.99C130.466 187.426 205.417 245.998 249.721 292.523C288.773 333.528 302.188 348.162 352.105 384.409C446.243 452.746 573.391 501.827 652.337 447.741C699.636 415.339 704.838 373.351 737.013 288.195C763.361 218.463 811.223 119.33 924.995 7.93506" stroke="#F5F5F5" stroke-width="0.619829" stroke-miterlimit="10"/>
<path d="M2.44189 180.735C126.803 198.006 201.307 252.076 245.279 294.541C284.939 332.842 301.513 345.741 354.183 381.234C449.947 445.775 568.607 492.645 646.799 442.84C696.308 411.302 706.02 370.216 741.742 285.195C770.228 217.372 819.329 120.026 930.994 9.65186" stroke="#F5F5F5" stroke-width="0.619829" stroke-miterlimit="10"/>
<path d="M2.72998 199.481C123.151 208.572 197.312 258.128 240.837 296.559C281.193 332.193 300.793 343.362 356.258 378.063C453.531 438.918 563.993 483.629 641.261 437.936C693.061 407.302 707.147 367.081 746.472 282.198C777.015 216.27 827.446 120.722 936.992 11.3843" stroke="#F5F5F5" stroke-width="0.619829" stroke-miterlimit="10"/>
<path d="M3.02832 218.229C119.509 219.161 193.452 264.151 236.405 298.577C277.561 331.564 300.042 341.034 358.343 374.892C457.019 432.178 559.546 474.778 635.734 433.032C689.905 403.351 708.183 363.941 751.212 279.198C783.718 215.156 835.542 121.426 942.991 13.1143" stroke="#F5F5F5" stroke-width="0.619829" stroke-miterlimit="10"/>
<path d="M3.30615 236.975C115.847 229.741 189.707 270.118 231.953 300.598C274.031 330.946 299.205 338.78 360.411 371.718C460.411 425.552 555.216 466.092 630.185 428.131C686.809 399.466 709.113 360.775 755.931 276.198C790.352 214.019 843.648 122.112 949.004 14.8442" stroke="#F5F5F5" stroke-width="0.619829" stroke-miterlimit="10"/>
<path d="M3.59424 255.712C112.197 240.312 186.109 275.998 227.512 302.609C270.61 330.307 298.348 336.551 362.486 368.539C463.728 419.027 550.995 457.557 624.647 423.219C683.777 395.653 709.97 357.57 760.661 273.19C796.915 212.845 851.757 122.8 954.988 16.5664" stroke="#F5F5F5" stroke-width="0.619829" stroke-miterlimit="10"/>
<path d="M3.88379 274.468C108.559 250.899 182.653 281.795 223.074 304.634C267.328 329.642 297.461 334.419 364.565 365.372C467.002 412.624 546.874 449.196 619.111 418.326C680.818 391.954 710.742 354.336 765.392 270.198C803.415 211.655 859.865 123.504 960.99 18.3091" stroke="#F5F5F5" stroke-width="0.619829" stroke-miterlimit="10"/>
<path d="M4.17188 293.213C104.894 261.476 179.328 287.46 218.632 306.652C264.17 328.891 296.554 332.351 366.64 362.2C470.235 406.315 542.828 440.975 613.573 413.421C677.914 388.364 711.436 351.042 770.122 267.2C809.862 210.421 867.971 124.197 966.987 20.0361" stroke="#F5F5F5" stroke-width="0.619829" stroke-miterlimit="10"/>
<path d="M4.45996 311.962C101.242 272.055 176.117 292.98 214.19 308.673C261.131 328.021 295.603 330.354 368.718 359.029C473.443 400.102 538.833 432.899 608.038 408.518C675.051 384.907 712.054 347.689 774.851 264.2C816.259 209.148 876.077 124.894 972.987 21.7661" stroke="#F5F5F5" stroke-width="0.619829" stroke-miterlimit="10"/>
<path d="M4.74805 330.707C97.5924 282.634 173.003 298.338 209.748 310.692C258.198 326.98 294.647 328.432 370.788 355.855C476.627 393.975 534.869 424.946 602.495 403.616C672.243 381.603 712.594 344.263 779.576 261.201C822.617 207.832 884.184 125.582 978.984 23.5039" stroke="#F5F5F5" stroke-width="0.619829" stroke-miterlimit="10"/>
<path d="M5.03613 349.453C93.9402 293.211 169.951 303.523 205.296 312.71C255.333 325.712 293.67 326.582 372.86 352.684C479.809 387.933 530.92 417.146 596.952 398.713C669.458 378.471 713.071 340.762 784.3 258.193C828.929 206.463 892.282 126.276 984.973 25.2183" stroke="#F5F5F5" stroke-width="0.619829" stroke-miterlimit="10"/>
<path d="M5.32422 368.201C90.301 303.79 166.925 308.53 200.865 314.728C252.527 324.162 292.707 324.808 374.946 349.51C482.998 381.977 526.988 409.455 591.424 393.811C666.71 375.528 713.502 337.188 789.04 255.203C835.238 205.063 900.399 126.979 990.981 26.9585" stroke="#F5F5F5" stroke-width="0.619829" stroke-miterlimit="10"/>
<path d="M5.62549 386.946C86.649 314.369 164.249 322.759 196.436 316.749C249.083 306.915 291.746 323.11 377.037 346.338C486.206 376.076 523.029 401.879 585.886 388.907C663.962 372.803 713.874 333.507 793.77 252.203C841.513 203.616 908.505 127.676 996.981 28.6987" stroke="#F5F5F5" stroke-width="0.619829" stroke-miterlimit="10"/>
<path d="M5.90137 405.692C82.9873 324.949 161.512 325.798 191.982 318.767C245.388 306.445 290.759 321.481 379.1 343.167C489.424 370.258 519.025 394.414 580.349 384.003C661.207 370.294 714.202 329.749 798.501 249.198C847.779 202.115 916.612 128.364 1002.98 30.4131" stroke="#F5F5F5" stroke-width="0.619829" stroke-miterlimit="10"/>
<path d="M6.18994 424.44C79.3355 335.525 158.416 328.538 187.541 320.785C241.907 306.315 289.791 319.925 381.178 340.006C492.661 364.489 514.97 387.035 574.812 379.115C658.43 368.048 714.493 325.91 803.231 246.216C854.033 200.593 924.722 129.073 1008.98 32.1611" stroke="#F5F5F5" stroke-width="0.619829" stroke-miterlimit="10"/>
<path d="M6.47803 443.185C75.6834 346.105 154.024 327.081 183.102 322.803C240.377 314.395 288.837 318.434 383.255 336.829C495.931 358.77 510.845 379.731 569.277 374.206C655.609 366.034 714.752 321.946 807.965 243.203C860.293 198.995 932.833 129.761 1014.98 33.8779" stroke="#F5F5F5" stroke-width="0.619829" stroke-miterlimit="10"/>
<path d="M6.76611 461.931C72.0312 356.684 150.403 331.492 178.657 324.824C236.748 311.118 287.889 317.011 385.328 333.655C499.222 353.102 506.627 372.507 563.736 369.302C652.726 364.31 714.991 317.925 812.69 240.211C866.545 197.372 940.934 130.463 1020.98 35.6157" stroke="#F5F5F5" stroke-width="0.619829" stroke-miterlimit="10"/>
<path d="M7.0542 480.679C68.3816 367.263 146.535 335.907 174.216 326.842C232.787 307.653 286.959 315.65 387.406 330.479C502.551 347.476 502.31 365.341 558.201 364.396C649.759 362.837 715.211 313.795 817.422 237.208C872.807 195.712 949.041 131.151 1026.98 37.3403" stroke="#F5F5F5" stroke-width="0.619829" stroke-miterlimit="10"/>
</g>
</svg>
