<svg width="490" height="836" viewBox="0 0 490 836" fill="none" xmlns="http://www.w3.org/2000/svg">
<path d="M202.536 40.1106C202.536 27.1163 199.917 14.2486 194.827 2.24387C189.738 -9.76091 182.278 -20.6693 172.874 -29.858C163.471 -39.0466 152.307 -46.3353 140.021 -51.3086C127.735 -56.2813 114.566 -58.8408 101.268 -58.8408C87.9694 -58.8408 74.8005 -56.2813 62.5147 -51.3086C50.2289 -46.3353 39.0651 -39.0466 29.6614 -29.858C20.2576 -20.6693 12.7982 -9.76091 7.70851 2.24387C2.61879 14.2486 0 27.1163 0 40.1106H101.268H202.536Z" fill="#FF0053"/>
<path d="M0 63.1094C13.3345 63.1094 26.5391 65.6683 38.8582 70.6416C51.1773 75.6149 62.3714 82.9036 71.8006 92.0922C81.2298 101.281 88.7094 112.189 93.813 124.194C98.9165 136.199 101.542 149.066 101.542 162.061H0V63.1094Z" fill="#FF0053"/>
<path d="M0 231.862C0 204.538 22.7313 182.387 50.7712 182.387H101.542V281.338H50.7712C22.7313 281.338 0 259.187 0 231.862Z" fill="#FFB2CB"/>
<path d="M566.992 82.8994C566.992 95.8939 564.366 108.761 559.262 120.767C554.159 132.772 546.679 143.68 537.25 152.869C527.821 162.057 516.627 169.346 504.307 174.319C491.988 179.291 478.784 181.851 465.449 181.851V82.8994H566.992Z" fill="#FFB2CB"/>
<path d="M445.689 280.267C432.354 280.267 419.15 277.715 406.83 272.755C394.511 267.796 383.317 260.527 373.888 251.363C364.458 242.2 356.979 231.321 351.876 219.348C346.773 207.375 344.146 194.543 344.146 181.583C344.146 168.624 346.773 155.792 351.876 143.819C356.979 131.846 364.458 120.967 373.888 111.803C383.317 102.64 394.511 95.3707 406.83 90.4112C419.15 85.452 432.354 82.8994 445.689 82.8994V280.267Z" fill="#320A38"/>
<path d="M242.604 62.5739V-134.794C255.939 -134.794 269.143 -132.242 281.463 -127.282C293.783 -122.322 304.977 -115.053 314.406 -105.889C323.835 -96.7256 331.315 -85.8467 336.417 -73.8744C341.52 -61.9021 344.147 -49.0692 344.147 -36.11C344.147 -23.1508 341.52 -10.318 336.417 1.65434C331.315 13.6267 323.835 24.5056 314.406 33.6694C304.977 42.8332 293.783 50.1022 281.463 55.0621C269.143 60.0219 255.939 62.5739 242.604 62.5739Z" fill="#FFB2CB"/>
<path d="M363.905 63.1096C363.905 50.1153 366.525 37.2477 371.614 25.2429C376.703 13.2381 384.162 2.3297 393.566 -6.85893C402.97 -16.0476 414.133 -23.3363 426.42 -28.3096C438.706 -33.2829 451.875 -35.8418 465.173 -35.8418C478.472 -35.8418 491.641 -33.2829 503.926 -28.3096C516.212 -23.3363 527.376 -16.0476 536.78 -6.85893C546.183 2.3297 553.643 13.2381 558.733 25.2429C563.822 37.2477 566.441 50.1153 566.441 63.1096H363.905Z" fill="#FF0053"/>
<path d="M505.792 201.641C528.072 201.641 546.134 219.242 546.134 240.954C546.134 262.666 528.072 280.267 505.792 280.267C483.511 280.267 465.449 262.666 465.449 240.954C465.449 219.242 483.511 201.641 505.792 201.641Z" fill="#FF0053"/>
<path d="M222.774 280.201C209.439 280.201 196.235 277.642 183.916 272.669C171.596 267.696 160.402 260.407 150.973 251.219C141.544 242.03 134.064 231.122 128.961 219.117C123.857 207.112 121.231 194.244 121.231 181.25H222.774V280.201Z" fill="#E6E6E6"/>
<path d="M121.231 113.119C121.231 140.444 143.963 162.595 172.003 162.595H222.774V63.6436H172.003C143.963 63.6436 121.231 85.7948 121.231 113.119Z" fill="#161616"/>
<path d="M242.607 181.316C249.239 181.316 255.805 182.596 261.932 185.082C268.058 187.569 273.625 191.213 278.314 195.807C283.003 200.402 286.723 205.856 289.26 211.859C291.798 217.861 293.104 224.295 293.104 230.792C293.104 237.289 291.798 243.723 289.26 249.726C286.723 255.728 283.003 261.182 278.314 265.777C273.625 270.371 268.058 274.015 261.932 276.502C255.805 278.988 249.239 280.268 242.607 280.268V181.316Z" fill="#320A38"/>
<path d="M282.95 64.25C305.23 64.25 323.292 81.8511 323.292 103.563C323.292 125.275 305.23 142.876 282.95 142.876C260.669 142.876 242.607 125.275 242.607 103.563C242.607 81.8511 260.669 64.25 282.95 64.25Z" fill="#E6E6E6"/>
<path d="M425.928 401.684C419.297 401.684 412.731 400.403 406.604 397.918C400.478 395.432 394.911 391.787 390.221 387.193C385.533 382.598 381.812 377.144 379.275 371.141C376.738 365.139 375.432 358.705 375.432 352.208C375.432 345.711 376.738 339.277 379.275 333.275C381.812 327.272 385.533 321.818 390.221 317.223C394.911 312.63 400.478 308.984 406.604 306.499C412.731 304.013 419.297 302.732 425.928 302.732V401.684Z" fill="#161616"/>
<path d="M0 737.049C6.63133 737.049 13.1977 738.329 19.3243 740.815C25.4507 743.301 31.0175 746.946 35.7066 751.54C40.3958 756.134 44.1152 761.588 46.6529 767.591C49.1907 773.594 50.4967 780.027 50.4967 786.525C50.4967 793.022 49.1907 799.455 46.6529 805.458C44.1152 811.461 40.3958 816.915 35.7066 821.509C31.0175 826.103 25.4507 829.748 19.3243 832.234C13.1977 834.72 6.63133 836 0 836V737.049Z" fill="#161616"/>
<path d="M101.541 401.148H203.083V500.1C189.749 500.1 176.544 497.541 164.225 492.568C151.905 487.594 140.711 480.306 131.282 471.117C121.853 461.928 114.374 451.02 109.27 439.015C104.168 427.01 101.541 414.143 101.541 401.148Z" fill="#FFB2CB"/>
<path d="M222.844 302.732C236.178 302.732 249.383 305.284 261.702 310.244C274.021 315.204 285.215 322.473 294.644 331.637C304.074 340.801 311.553 351.68 316.657 363.652C321.76 375.624 324.386 388.457 324.386 401.416C324.386 414.376 321.76 427.208 316.657 439.181C311.553 451.153 304.074 462.032 294.644 471.196C285.215 480.36 274.021 487.629 261.702 492.588C249.383 497.548 236.178 500.1 222.844 500.1V302.732Z" fill="#FF0053"/>
<path d="M446.237 836C446.237 823.006 448.856 810.139 453.946 798.133C459.036 786.128 466.495 775.22 475.899 766.031C485.302 756.842 496.466 749.554 508.752 744.581C521.038 739.608 534.207 737.049 547.505 737.049C560.804 737.049 573.973 739.608 586.258 744.581C598.544 749.554 609.708 756.842 619.112 766.031C628.515 775.22 635.975 786.128 641.065 798.133C646.154 810.139 648.773 823.006 648.773 836H446.237Z" fill="#320A38"/>
<path d="M648.773 302.732C648.773 315.727 646.154 328.594 641.065 340.599C635.975 352.604 628.515 363.512 619.112 372.701C609.708 381.89 598.544 389.178 586.258 394.152C573.973 399.125 560.804 401.684 547.505 401.684C534.207 401.684 521.038 399.125 508.752 394.152C496.466 389.178 485.302 381.89 475.899 372.701C466.495 363.512 459.036 352.604 453.946 340.599C448.856 328.594 446.237 315.727 446.237 302.732H648.773Z" fill="#FF0053"/>
<path d="M425.929 618.843C412.595 618.843 399.39 616.291 387.071 611.331C374.752 606.371 363.558 599.102 354.128 589.938C344.699 580.774 337.22 569.895 332.116 557.923C327.013 545.951 324.387 533.118 324.387 520.159C324.387 507.199 327.013 494.367 332.116 482.394C337.22 470.422 344.699 459.543 354.128 450.379C363.558 441.215 374.752 433.946 387.071 428.986C399.39 424.027 412.595 421.475 425.929 421.475V618.843Z" fill="#FF0053"/>
<path d="M0 618.843V421.475C13.3348 421.475 26.5389 424.027 38.8586 428.986C51.1784 433.946 62.3722 441.215 71.8014 450.379C81.2304 459.543 88.71 470.422 93.813 482.394C98.9159 494.367 101.542 507.199 101.542 520.159C101.542 533.118 98.9159 545.951 93.813 557.923C88.71 569.895 81.2304 580.774 71.8012 589.938C62.3722 599.102 51.1784 606.371 38.8586 611.331C26.5389 616.291 13.3347 618.843 0 618.843Z" fill="#FF0053"/>
<path d="M121.302 618.842C121.302 605.848 123.921 592.98 129.01 580.975C134.1 568.971 141.559 558.062 150.963 548.874C160.366 539.685 171.53 532.396 183.816 527.423C196.102 522.45 209.271 519.891 222.57 519.891C235.868 519.891 249.037 522.45 261.323 527.423C273.609 532.396 284.772 539.685 294.176 548.874C303.58 558.062 311.039 568.971 316.129 580.975C321.219 592.98 323.838 605.848 323.838 618.842H121.302Z" fill="#161616"/>
<path d="M547.231 638.633C547.231 651.627 544.612 664.495 539.523 676.5C534.433 688.505 526.973 699.414 517.57 708.602C508.166 717.791 497.002 725.079 484.716 730.052C472.431 735.025 459.262 737.584 445.963 737.584C432.665 737.584 419.496 735.025 407.21 730.052C394.924 725.079 383.76 717.791 374.357 708.602C364.953 699.414 357.494 688.505 352.404 676.5C347.314 664.495 344.695 651.627 344.695 638.633H547.231Z" fill="#FF0053"/>
<path d="M547.231 519.889H445.688V420.938C459.023 420.938 472.228 423.496 484.547 428.47C496.866 433.443 508.06 440.732 517.489 449.92C526.918 459.109 534.398 470.017 539.501 482.022C544.605 494.027 547.231 506.895 547.231 519.889Z" fill="#320A38"/>
<path d="M375.158 737.049C403.198 737.049 425.929 759.2 425.929 786.525V836H324.387V786.525C324.387 759.2 347.118 737.049 375.158 737.049Z" fill="#161616"/>
<path d="M101.542 352.208C101.542 379.533 78.8113 401.684 50.7712 401.684H0V302.732H50.7712C78.8113 302.732 101.542 324.884 101.542 352.208Z" fill="#161616"/>
<path d="M324.39 638.631C324.39 651.625 321.764 664.493 316.661 676.498C311.557 688.503 304.077 699.412 294.648 708.6C285.219 717.789 274.025 725.077 261.706 730.05C249.387 735.023 236.182 737.582 222.848 737.582V638.631H324.39Z" fill="#320A38"/>
<path d="M203.086 835.999C189.752 835.999 176.547 833.446 164.228 828.487C151.908 823.528 140.714 816.259 131.285 807.095C121.856 797.931 114.376 787.053 109.273 775.08C104.17 763.107 101.544 750.274 101.544 737.315C101.544 724.355 104.17 711.523 109.273 699.55C114.376 687.577 121.856 676.698 131.285 667.535C140.714 658.371 151.908 651.102 164.228 646.143C176.547 641.183 189.752 638.631 203.086 638.631V835.999Z" fill="#FFB2CB"/>
<path d="M263.19 757.371C285.471 757.371 303.533 774.972 303.533 796.684C303.533 818.396 285.471 835.997 263.19 835.997C240.91 835.997 222.848 818.396 222.848 796.684C222.848 774.972 240.91 757.371 263.19 757.371Z" fill="#E6E6E6"/>
<path d="M40.3425 639.166C62.623 639.166 80.685 656.767 80.685 678.479C80.685 700.191 62.623 717.792 40.3425 717.792C18.062 717.792 0 700.191 0 678.479C0 656.767 18.062 639.166 40.3425 639.166Z" fill="#161616"/>
<path d="M161.644 302.732C183.925 302.732 201.987 320.334 201.987 342.046C201.987 363.758 183.925 381.359 161.644 381.359C139.364 381.359 121.302 363.758 121.302 342.046C121.302 320.334 139.364 302.732 161.644 302.732Z" fill="#161616"/>
<path d="M486.58 540.215C508.86 540.215 526.922 557.816 526.922 579.528C526.922 601.24 508.86 618.841 486.58 618.841C464.299 618.841 446.237 601.24 446.237 579.528C446.237 557.816 464.299 540.215 486.58 540.215Z" fill="#E6E6E6"/>
</svg>
